<?xml version="1.0" encoding="UTF-8" standalone="no"?>
<!DOCTYPE svg PUBLIC "-//W3C//DTD SVG 1.1//EN" "http://www.w3.org/Graphics/SVG/1.1/DTD/svg11.dtd">
<svg width="100%" height="100%" viewBox="0 0 128 128" version="1.1" xmlns="http://www.w3.org/2000/svg" xmlns:xlink="http://www.w3.org/1999/xlink" xml:space="preserve" xmlns:serif="http://www.serif.com/" style="fill-rule:evenodd;clip-rule:evenodd;stroke-linejoin:round;stroke-miterlimit:2;">
    <path d="M128,32C128,14.339 113.661,0 96,0L32,0C14.339,0 0,14.339 0,32L0,96C0,113.661 14.339,128 32,128L96,128C113.661,128 128,113.661 128,96L128,32Z" style="fill:rgb(103,58,183);"/>
    <g transform="matrix(81.9542,0,0,81.9542,22.3826,94.7328)">
        <path d="M0.683,-0.682C0.578,-0.682 0.492,-0.75 0.36,-0.75C0.311,-0.75 0.268,-0.741 0.227,-0.727C0.231,-0.737 0.234,-0.754 0.234,-0.766C0.234,-0.768 0.234,-0.771 0.234,-0.773C0.231,-0.828 0.185,-0.873 0.13,-0.875C0.067,-0.877 0.016,-0.828 0.016,-0.766C0.016,-0.728 0.034,-0.696 0.063,-0.676L0.063,0.078C0.063,0.104 0.083,0.125 0.109,0.125L0.141,0.125C0.167,0.125 0.188,0.104 0.188,0.078L0.188,-0.106C0.243,-0.13 0.312,-0.149 0.411,-0.149C0.516,-0.149 0.602,-0.082 0.734,-0.082C0.828,-0.082 0.903,-0.113 0.973,-0.161C0.99,-0.173 1,-0.192 1,-0.213L1,-0.688C1,-0.733 0.953,-0.764 0.911,-0.744C0.844,-0.713 0.762,-0.682 0.683,-0.682Z" style="fill:rgb(255,152,0);fill-rule:nonzero;"/>
    </g>
</svg>
